<svg class="icon" viewBox="0 0 1059 1024" xmlns="http://www.w3.org/2000/svg" width="206.836" height="200"><defs><style/></defs><path d="M125.035 297.948L414.012 8.971c11.142-11.141 22.283-11.141 33.42 0l20.938 20.934c11.137 11.142 11.137 22.283 0 33.42L179.383 352.307c-11.141 11.142-22.283 11.142-33.42 0l-20.933-20.933c-11.142-11.142-11.142-22.284 0-33.42zm752.487 55.322a23.822 23.822 0 0 0 33.736 0l20.704-20.725a23.76 23.76 0 0 0 0-33.73L640.927 7.992a23.822 23.822 0 0 0-33.73 0l-20.705 20.725a23.781 23.781 0 0 0 0 33.73l291.03 290.822z"/><path d="M943.766 294.423H21.25A21.26 21.26 0 0 0 0 315.683v43.955a21.25 21.25 0 0 0 21.25 21.254h44.276l30.633 459.613c6.73 100.994 90.642 179.455 191.86 179.399h481.05c101.219.05 185.13-78.405 191.86-179.399l30.634-459.613h44.272a21.25 21.25 0 0 0 21.254-21.254v-43.956a21.254 21.254 0 0 0-21.377-21.26h-91.95zM282.262 834.158a24.016 24.016 0 0 1-24.036 24.015H239.02a24.036 24.036 0 0 1-23.97-24.056V480.995a24.056 24.056 0 0 1 24.031-24.036h19.206a24.036 24.036 0 0 1 24.036 24.036l-.06 353.163zm279.858 0a24.036 24.036 0 0 1-24.036 24.015h-19.206a24.016 24.016 0 0 1-24.036-24.015V480.995a24.036 24.036 0 0 1 24.036-24.036h19.206a24.056 24.056 0 0 1 24.036 24.036v353.163zm279.837 0a24.016 24.016 0 0 1-23.929 23.97h-19.232a24.016 24.016 0 0 1-24.01-24.011V480.995a24.036 24.036 0 0 1 24.01-24.036h19.232a24.036 24.036 0 0 1 24.01 24.036l-.08 353.163z"/></svg>