<svg class="icon" viewBox="0 0 1024 1024" xmlns="http://www.w3.org/2000/svg" width="200" height="200"><defs><style/></defs><path d="M934.957 0A89.043 89.043 0 0 1 1024 89.043v845.914A89.043 89.043 0 0 1 934.957 1024H89.043A89.043 89.043 0 0 1 0 934.957V89.043A89.043 89.043 0 0 1 89.043 0h845.914zM582.7 286.008a44.522 44.522 0 0 0-62.643-6.322L376.164 397.178 253.062 281.734l-4.319-3.562a44.522 44.522 0 0 0-56.587 68.474l105.027 98.571H178.087a44.522 44.522 0 0 0 0 89.044h155.826v44.522H178.087a44.522 44.522 0 0 0 0 89.043h155.826v200.348a44.522 44.522 0 0 0 89.044 0V667.826h155.826a44.522 44.522 0 0 0 0-89.043H422.957V534.26h155.826a44.522 44.522 0 0 0 0-89.044H458.129l118.25-96.523 4.095-3.829a44.522 44.522 0 0 0 2.227-58.857zM890.435 44.522H534.26l445.217 445.217V133.565a89.043 89.043 0 0 0-89.043-89.043z"/></svg>