<?xml version="1.0" standalone="no"?><!DOCTYPE svg PUBLIC "-//W3C//DTD SVG 1.1//EN" "http://www.w3.org/Graphics/SVG/1.1/DTD/svg11.dtd"><svg t="1618199615566" class="icon" viewBox="0 0 1024 1024" version="1.1" xmlns="http://www.w3.org/2000/svg" p-id="1452" xmlns:xlink="http://www.w3.org/1999/xlink" width="200" height="200"><defs><style type="text/css"></style></defs><path d="M0 0m89.043478 0l845.913044 0q89.043478 0 89.043478 89.043478l0 845.913044q0 89.043478-89.043478 89.043478l-845.913044 0q-89.043478 0-89.043478-89.043478l0-845.913044q0-89.043478 89.043478-89.043478Z" fill="#4A4A53" p-id="1453"></path><path d="M222.608696 178.086957h578.782608v89.043478H222.608696zM222.608696 356.173913h578.782608v89.043478H222.608696zM222.608696 534.26087h578.782608v89.043478H222.608696zM178.086957 890.434783h133.565217v133.565217H178.086957zM445.217391 890.434783h133.565218v133.565217h-133.565218zM712.347826 890.434783h133.565217v133.565217h-133.565217z" fill="#FFFFFF" p-id="1454"></path></svg>