<svg t="1618205794340" class="icon" viewBox="0 0 1024 1024" version="1.1" xmlns="http://www.w3.org/2000/svg" p-id="1018" width="200" height="200"><path d="M0 0m89.043478 0l845.913044 0q89.043478 0 89.043478 89.043478l0 845.913044q0 89.043478-89.043478 89.043478l-845.913044 0q-89.043478 0-89.043478-89.043478l0-845.913044q0-89.043478 89.043478-89.043478Z" fill="#4A4A53" p-id="1019"></path><path d="M0 311.652174h1024v89.043478H0zM0 578.782609h1024v89.043478H0z" fill="#FFFFFF" p-id="1020"></path><path d="M178.086957 178.086957m89.043478 0l489.73913 0q89.043478 0 89.043478 89.043478l0 489.73913q0 89.043478-89.043478 89.043478l-489.73913 0q-89.043478 0-89.043478-89.043478l0-489.73913q0-89.043478 89.043478-89.043478Z" fill="#FFFFFF" p-id="1021"></path></svg>