<svg class="icon" viewBox="0 0 1024 1024" xmlns="http://www.w3.org/2000/svg" width="200" height="200"><defs><style/></defs><path d="M414.853 101.064a44.522 44.522 0 0 1 64.735 60.906l-3.83 4.052L226.616 399.76a44.522 44.522 0 0 1-56.453 3.695l-4.453-3.695L14.113 257.603A44.522 44.522 0 0 1 70.7 189.128l4.319 3.562 121.054 113.53L414.81 101.11zM667.915 0h267.13q89.044 0 89.044 89.043v267.13q0 89.044-89.044 89.044h-267.13q-89.044 0-89.044-89.043V89.044Q578.871 0 667.915 0zm0 578.783h267.13q89.044 0 89.044 89.043v267.13q0 89.044-89.044 89.044h-267.13q-89.044 0-89.044-89.043v-267.13q0-89.044 89.044-89.044zm-578.783 0h267.13q89.044 0 89.044 89.043v267.13q0 89.044-89.043 89.044H89.133Q.088 1024 .088 934.957v-267.13q0-89.044 89.043-89.044z"/></svg>