<svg t="1618199704283" class="icon" viewBox="0 0 1024 1024" version="1.1" xmlns="http://www.w3.org/2000/svg" p-id="1578" width="200" height="200"><path d="M0 0m89.043478 0l845.913044 0q89.043478 0 89.043478 89.043478l0 845.913044q0 89.043478-89.043478 89.043478l-845.913044 0q-89.043478 0-89.043478-89.043478l0-845.913044q0-89.043478 89.043478-89.043478Z" fill="#4A4A53" p-id="1579"></path><path d="M222.608696 133.565217m178.086956 0l0 0q178.086957 0 178.086957 178.086957l0 0q0 178.086957-178.086957 178.086956l0 0q-178.086957 0-178.086956-178.086956l0 0q0-178.086957 178.086956-178.086957Z" fill="#FFFFFF" p-id="1580"></path><path d="M712.347826 133.565217h222.608696v89.043479h-222.608696zM712.347826 267.130435h222.608696v89.043478h-222.608696zM712.347826 400.695652h222.608696v89.043478h-222.608696zM690.086957 712.347826v111.304348a44.521739 44.521739 0 0 1-44.52174 44.521739h-489.73913a44.521739 44.521739 0 0 1-44.521739-44.521739V712.347826A155.826087 155.826087 0 0 1 267.130435 556.521739h267.130435a155.826087 155.826087 0 0 1 155.826087 155.826087z" fill="#FFFFFF" p-id="1581"></path></svg>