<svg t="1618205753066" class="icon" viewBox="0 0 1024 1024" version="1.1" xmlns="http://www.w3.org/2000/svg" p-id="887" width="200" height="200"><path d="M0 0m89.043478 0l845.913044 0q89.043478 0 89.043478 89.043478l0 845.913044q0 89.043478-89.043478 89.043478l-845.913044 0q-89.043478 0-89.043478-89.043478l0-845.913044q0-89.043478 89.043478-89.043478Z" fill="#4A4A53" p-id="888"></path><path d="M259.294609 125.862957h520.637217a89.043478 89.043478 0 0 1 86.639304 68.563478l56.364522 239.037217a44.521739 44.521739 0 0 1-46.302609 54.628174c-21.147826-1.424696-36.953043-3.695304-47.415652-6.900869-18.69913-5.654261-39.891478-27.603478-63.443478-65.714087H300.432696c-40.69287 35.394783-73.193739 57.299478-97.502609 65.714087-13.801739 4.763826-32.278261 7.746783-55.429565 8.948869a44.521739 44.521739 0 0 1-44.966957-56.987826l71.323826-243.311304a89.043478 89.043478 0 0 1 85.437218-63.977739z" fill="#FFFFFF" p-id="889"></path><path d="M901.565217 812.521739a111.304348 111.304348 0 0 1-104.002782 111.081739l-7.301565 0.222609h-534.26087a111.304348 111.304348 0 0 1-111.081739-104.002783l-0.222609-7.301565v-311.652174h44.521739v311.652174a66.782609 66.782609 0 0 0 60.371479 66.470957l6.41113 0.311652h534.26087a66.782609 66.782609 0 0 0 66.470956-60.371478l0.311652-6.411131v-311.652174h44.521739v311.652174z" fill="#FFFFFF" p-id="890"></path><path d="M260.585739 756.869565h501.003131L845.913043 890.434783H178.086957z" fill="#FFFFFF" p-id="891"></path><path d="M267.130435 311.652174m89.043478 0l0 0q89.043478 0 89.043478 89.043478l0 0q0 89.043478-89.043478 89.043478l0 0q-89.043478 0-89.043478-89.043478l0 0q0-89.043478 89.043478-89.043478Z" fill="#FFFFFF" p-id="892"></path><path d="M445.217391 311.652174m89.043479 0l0 0q89.043478 0 89.043478 89.043478l0 0q0 89.043478-89.043478 89.043478l0 0q-89.043478 0-89.043479-89.043478l0 0q0-89.043478 89.043479-89.043478Z" fill="#FFFFFF" p-id="893"></path><path d="M623.304348 311.652174m89.043478 0l0 0q89.043478 0 89.043478 89.043478l0 0q0 89.043478-89.043478 89.043478l0 0q-89.043478 0-89.043478-89.043478l0 0q0-89.043478 89.043478-89.043478Z" fill="#FFFFFF" p-id="894"></path></svg>