<svg class="icon" viewBox="0 0 1024 1024" xmlns="http://www.w3.org/2000/svg" width="200" height="200"><defs><style/></defs><path d="M757.811.42c31.703 0 57.313 23.613 57.313 52.767v18.616h82.996c40.484 0 72.908 29.752 72.187 66.98v817.756c0 36.557-32.359 66.376-72.187 66.376H120.904c-39.85-.031-72.151-29.732-72.187-66.376v-818.36c0-36.624 32.358-66.376 72.192-66.376h80.174V53.125c0-29.092 25.677-52.705 57.38-52.705H757.81zm-449.06 345.334c-20.705 15.544-29.803 33.551-20.705 40.36l102.871 76.918h-64.686c-15.79 0-29 18.012-29 39.757 0 21.683 12.406 39.695 29 39.695h126.956v59.51H326.23c-15.79 0-29 17.408-29 39.158 0 21.683 12.406 39.03 29 39.03h126.956v99.266c0 13.67 23.198 24.817 52.28 24.817 29 0 52.198-11.141 52.198-24.817v-99.266h127.847c15.708 0 28.19-17.347 28.19-39.091 0-21.689-12.482-39.097-28.195-39.097h-126.95v-60.17h126.95c15.713 0 28.195-17.95 28.195-39.695 0-21.689-12.482-39.757-28.195-39.757h-71.373L716.2 386.714c9.103-6.805 0-24.817-20.787-40.356-20.7-15.478-44.785-22.288-53.965-15.478L502.886 434.478 362.721 330.271c-9.103-6.81-33.188 0-53.97 15.477zM719.683 80.538H284.175v52.106h435.508V80.532z"/></svg>