<svg class="icon" viewBox="0 0 1024 1024" xmlns="http://www.w3.org/2000/svg" width="200" height="200"><defs><style/></defs><path d="M785.94 1022.08V554.056c0-38.175-30.945-69.12-69.12-69.12H302.09c-38.18 0-69.12 30.945-69.12 69.12v468.024H94.72c-38.175 0-69.12-30.945-69.12-69.12V366.459a69.141 69.141 0 0 1 28.964-56.269l414.73-296.248a69.12 69.12 0 0 1 80.318 0L964.347 310.2a69.13 69.13 0 0 1 28.959 56.264V952.96c0 38.18-30.946 69.125-69.12 69.125h-138.24zM329.738 607.585h359.434c15.207 0 27.648 12.442 27.648 27.648v387.083H302.09V635.233c0-15.206 12.442-27.648 27.648-27.648zm179.712 138.24V884.07h138.245V745.83h-138.24z"/></svg>