<svg class="icon" viewBox="0 0 1024 1024" xmlns="http://www.w3.org/2000/svg" width="200" height="200"><defs><style/></defs><path d="M89.043 0h845.914Q1024 0 1024 89.043v845.914q0 89.043-89.043 89.043H89.043Q0 1024 0 934.957V89.043Q0 0 89.043 0z"/><path d="M512 133.565q200.348 0 200.348 200.348T512 534.261q-200.348 0-200.348-200.348T512 133.565zm311.652 601.044v133.565a44.522 44.522 0 0 1-44.522 44.522H244.87a44.522 44.522 0 0 1-44.522-44.522V734.609a178.087 178.087 0 0 1 178.087-178.087h267.13a178.087 178.087 0 0 1 178.087 178.087z"/></svg>